<?xml version="1.0" encoding="utf-8"?>
<!-- Generator: Adobe Illustrator 14.0.0, SVG Export Plug-In . SVG Version: 6.00 Build 43363)  -->
<!DOCTYPE svg PUBLIC "-//W3C//DTD SVG 1.1//EN" "http://www.w3.org/Graphics/SVG/1.1/DTD/svg11.dtd">
<svg version="1.1" id="Calque_1" xmlns="http://www.w3.org/2000/svg" xmlns:xlink="http://www.w3.org/1999/xlink" x="0px" y="0px"
	 width="355.914px" height="170.967px" viewBox="0 0 355.914 170.967" enable-background="new 0 0 355.914 170.967"
	 xml:space="preserve">
<path fill="#FFFFFF" d="M305.439,121.972c0,9.028-7.321,16.349-16.351,16.349H51.432c-9.029,0-16.349-7.32-16.349-16.349V45.679
	c0-9.03,7.319-16.349,16.349-16.349h237.656c9.029,0,16.351,7.319,16.351,16.349V121.972z"/>
<text transform="matrix(1 0 0 1 156.5908 79.7881)"><tspan x="0" y="0" fill="#262626" font-family="'BebasNeue'" font-size="46.3212">POWERED</tspan><tspan x="0" y="41.417" fill="#262626" font-family="'BebasNeue'" font-size="46.3212">BY BURST</tspan></text>
<circle fill="#262626" cx="89.578" cy="83.824" r="44.246"/>
<g>
	<path fill="#FFFFFF" d="M71.017,86.737l-1.957,8.319l-23.573-7.503h15.091l1.958-9.135l15.033,0.009l4.383-23.66h16.968
		c11.652,0,15.848,4.401,14.185,13.367l-0.383,2.075c-1.11,5.978-4.049,9.713-9.411,11.621l-0.031,0.168
		c5.677,1.908,7.229,6.226,6.091,12.37l-0.876,4.73c-1.663,8.967-8.382,13.782-19.626,13.782H71.184l4.845-26.145H71.017z
		 M87.274,86.73l-3.306,17.85h6.439c3.782,0,6.087-1.412,6.887-5.729l0.938-5.066c0.999-5.393-0.839-7.055-5.949-7.055H87.274
		L87.274,86.73z M91.658,63.07l-2.846,15.358h4.396c4.191,0,7.021-1.496,7.883-6.143l0.6-3.238c0.771-4.151-0.629-5.977-4.616-5.977
		L91.658,63.07L91.658,63.07z"/>
</g>
<line fill="#262626" stroke="#262626" stroke-width="3.3922" x1="146.418" y1="47.369" x2="146.418" y2="121.208"/>
</svg>
