<?xml version="1.0" encoding="utf-8"?>
<!-- Generator: Adobe Illustrator 14.0.0, SVG Export Plug-In . SVG Version: 6.00 Build 43363)  -->
<!DOCTYPE svg PUBLIC "-//W3C//DTD SVG 1.1//EN" "http://www.w3.org/Graphics/SVG/1.1/DTD/svg11.dtd">
<svg version="1.1" id="Calque_1" xmlns="http://www.w3.org/2000/svg" xmlns:xlink="http://www.w3.org/1999/xlink" x="0px" y="0px"
	 width="355.914px" height="170.967px" viewBox="0 0 355.914 170.967" enable-background="new 0 0 355.914 170.967"
	 xml:space="preserve">
<path fill="#00579D" d="M305.439,121.972c0,9.028-7.321,16.35-16.352,16.35H51.432c-9.029,0-16.349-7.32-16.349-16.35V45.679
	c0-9.03,7.319-16.349,16.349-16.349h237.656c9.029,0,16.352,7.319,16.352,16.349V121.972L305.439,121.972z"/>
<g enable-background="new    ">
	<path fill="#FFFFFF" d="M173.546,55.374v4.216c0,5.188-2.501,8.015-7.597,8.015h-2.409v12.184h-5.096V47.36h7.505
		C171.044,47.36,173.546,50.186,173.546,55.374z M163.54,51.993v10.979h2.409c1.621,0,2.501-0.741,2.501-3.058V55.05
		c0-2.316-0.88-3.057-2.501-3.057H163.54z"/>
	<path fill="#FFFFFF" d="M175.49,55.143c0-5.188,2.733-8.153,7.737-8.153c5.003,0,7.736,2.965,7.736,8.153v16.862
		c0,5.189-2.733,8.154-7.736,8.154c-5.003,0-7.737-2.965-7.737-8.154V55.143z M180.586,72.33c0,2.315,1.02,3.196,2.641,3.196
		s2.641-0.881,2.641-3.196V54.818c0-2.316-1.02-3.196-2.641-3.196s-2.641,0.88-2.641,3.196V72.33z"/>
	<path fill="#FFFFFF" d="M205.6,62.509h-0.092L203.7,79.788h-6.995l-3.613-32.428h4.957l2.687,25.571h0.093l2.409-25.571h4.91
		l2.502,25.757h0.093l2.594-25.757h4.447l-3.613,32.428h-6.764L205.6,62.509z"/>
	<path fill="#FFFFFF" d="M225.424,61.026h6.995v4.633h-6.995v9.496h8.802v4.633h-13.897V47.36h13.897v4.633h-8.802V61.026z"/>
	<path fill="#FFFFFF" d="M248.029,79.788c-0.278-0.834-0.464-1.344-0.464-3.984v-5.096c0-3.011-1.019-4.123-3.335-4.123h-1.761
		v13.203h-5.096V47.36h7.69c5.281,0,7.551,2.455,7.551,7.458v2.548c0,3.336-1.065,5.467-3.336,6.532v0.093
		c2.549,1.065,3.383,3.475,3.383,6.856v5.003c0,1.575,0.046,2.733,0.555,3.938H248.029z M242.47,51.993v9.96h1.992
		c1.899,0,3.058-0.834,3.058-3.429v-3.196c0-2.316-0.787-3.335-2.594-3.335H242.47z"/>
	<path fill="#FFFFFF" d="M261.091,61.026h6.995v4.633h-6.995v9.496h8.802v4.633h-13.897V47.36h13.897v4.633h-8.802V61.026z"/>
	<path fill="#FFFFFF" d="M273.041,47.36h8.061c5.096,0,7.598,2.825,7.598,8.014v16.399c0,5.188-2.502,8.015-7.598,8.015h-8.061
		V47.36z M278.137,51.993v23.162h2.872c1.622,0,2.595-0.834,2.595-3.15V55.143c0-2.316-0.973-3.149-2.595-3.149H278.137z"/>
</g>
<g enable-background="new    ">
	<path fill="#FFFFFF" d="M173.685,96.236v1.158c0,3.336-1.019,5.42-3.289,6.485v0.093c2.733,1.065,3.798,3.475,3.798,6.902v2.641
		c0,5.004-2.64,7.69-7.736,7.69h-8.014V88.778h7.69C171.415,88.778,173.685,91.233,173.685,96.236z M163.54,93.411v8.569h1.992
		c1.899,0,3.058-0.833,3.058-3.428v-1.807c0-2.316-0.788-3.335-2.594-3.335H163.54z M163.54,106.613v9.96h2.918
		c1.714,0,2.641-0.787,2.641-3.196v-2.826c0-3.011-0.973-3.938-3.289-3.938H163.54z"/>
	<path fill="#FFFFFF" d="M181.326,110.458l-6.438-21.68h5.327l3.846,14.777h0.092l3.846-14.777h4.863l-6.439,21.68v10.748h-5.096
		V110.458z"/>
	<path fill="#FFFFFF" d="M217.318,96.236v1.158c0,3.336-1.019,5.42-3.289,6.485v0.093c2.733,1.065,3.799,3.475,3.799,6.902v2.641
		c0,5.004-2.641,7.69-7.736,7.69h-8.014V88.778h7.689C215.049,88.778,217.318,91.233,217.318,96.236z M207.174,93.411v8.569h1.992
		c1.898,0,3.057-0.833,3.057-3.428v-1.807c0-2.316-0.787-3.335-2.594-3.335H207.174z M207.174,106.613v9.96h2.918
		c1.715,0,2.641-0.787,2.641-3.196v-2.826c0-3.011-0.973-3.938-3.289-3.938H207.174z"/>
	<path fill="#FFFFFF" d="M225.748,88.778v25.016c0,2.316,1.02,3.15,2.641,3.15s2.641-0.834,2.641-3.15V88.778h4.818v24.691
		c0,5.188-2.595,8.153-7.598,8.153c-5.004,0-7.598-2.965-7.598-8.153V88.778H225.748z"/>
	<path fill="#FFFFFF" d="M249.975,121.206c-0.278-0.834-0.464-1.344-0.464-3.984v-5.096c0-3.011-1.019-4.123-3.335-4.123h-1.761
		v13.203h-5.096V88.778h7.69c5.281,0,7.551,2.455,7.551,7.458v2.548c0,3.336-1.065,5.467-3.336,6.532v0.093
		c2.549,1.065,3.383,3.475,3.383,6.856v5.003c0,1.575,0.046,2.733,0.555,3.938H249.975z M244.415,93.411v9.96h1.992
		c1.899,0,3.058-0.834,3.058-3.429v-3.196c0-2.316-0.787-3.335-2.594-3.335H244.415z"/>
	<path fill="#FFFFFF" d="M264.796,88.407c4.957,0,7.505,2.965,7.505,8.153v1.02h-4.818v-1.344c0-2.316-0.926-3.196-2.547-3.196
		c-1.622,0-2.549,0.88-2.549,3.196c0,2.362,1.02,4.123,4.355,7.042c4.262,3.752,5.605,6.439,5.605,10.145
		c0,5.189-2.595,8.154-7.598,8.154c-5.004,0-7.598-2.965-7.598-8.154v-1.991h4.818v2.316c0,2.315,1.019,3.149,2.641,3.149
		c1.621,0,2.641-0.834,2.641-3.149c0-2.363-1.02-4.123-4.355-7.042c-4.262-3.752-5.605-6.439-5.605-10.146
		C257.291,91.372,259.84,88.407,264.796,88.407z"/>
	<path fill="#FFFFFF" d="M273.781,88.778h15.751v4.633h-5.327v27.795h-5.096V93.411h-5.328V88.778z"/>
</g>
<circle fill="#FFFFFF" cx="89.578" cy="83.824" r="44.246"/>
<g>
	<path fill="#00579D" d="M71.017,86.737l-1.957,8.318l-23.573-7.502h15.091l1.958-9.136l15.033,0.009l4.383-23.66H98.92
		c11.652,0,15.848,4.401,14.185,13.367l-0.383,2.075c-1.11,5.978-4.049,9.713-9.411,11.621l-0.031,0.168
		c5.677,1.908,7.229,6.226,6.091,12.37l-0.876,4.73c-1.663,8.967-8.382,13.781-19.626,13.781H71.184l4.845-26.145h-5.012V86.737z
		 M87.274,86.729l-3.306,17.851h6.439c3.782,0,6.087-1.412,6.887-5.729l0.938-5.065c0.999-5.394-0.839-7.056-5.949-7.056H87.274
		L87.274,86.729z M91.658,63.07l-2.846,15.358h4.396c4.191,0,7.021-1.496,7.883-6.143l0.6-3.238
		c0.771-4.151-0.629-5.977-4.616-5.977H91.658L91.658,63.07z"/>
</g>
<line fill="none" stroke="#FFFFFF" stroke-width="3.3922" x1="146.418" y1="47.369" x2="146.418" y2="121.208"/>
</svg>
