<?xml version="1.0" encoding="utf-8"?>
<!-- Generator: Adobe Illustrator 14.0.0, SVG Export Plug-In . SVG Version: 6.00 Build 43363)  -->
<!DOCTYPE svg PUBLIC "-//W3C//DTD SVG 1.1//EN" "http://www.w3.org/Graphics/SVG/1.1/DTD/svg11.dtd">
<svg version="1.1" id="Calque_1" xmlns="http://www.w3.org/2000/svg" xmlns:xlink="http://www.w3.org/1999/xlink" x="0px" y="0px"
	 width="953.762px" height="312.902px" viewBox="0 0 953.762 312.902" enable-background="new 0 0 953.762 312.902"
	 xml:space="preserve">
<path fill="#FFFFFF" d="M311.925,283.337l-265.009,0.005c-8.146,0-14.749-6.604-14.749-14.749V41.455
	c0-8.146,6.603-14.749,14.749-14.749l265.009-0.005V283.337z"/>
<path fill="#00579D" d="M172.044,31.101c68.438,0,123.911,55.479,123.911,123.912s-55.474,123.908-123.911,123.908
	c-68.433,0-123.908-55.476-123.908-123.908C48.136,86.579,103.611,31.101,172.044,31.101z"/>
<g>
	<path fill="#FFFFFF" d="M120.064,163.168l-5.479,23.294L48.571,165.45h42.261l5.479-25.58l42.098,0.027l12.275-66.259h47.521
		c32.632,0,44.378,12.325,39.723,37.433l-1.073,5.813c-3.109,16.74-11.34,27.197-26.357,32.543l-0.085,0.469
		c15.899,5.346,20.243,17.438,17.058,34.64l-2.457,13.25c-4.654,25.11-23.471,38.598-54.959,38.598h-49.524l13.567-73.215H120.064z
		 M165.592,163.149l-9.261,49.981h18.036c10.592,0,17.044-3.951,19.286-16.04l2.626-14.187c2.8-15.105-2.351-19.759-16.661-19.759
		L165.592,163.149L165.592,163.149z M177.867,96.888l-7.969,43.013h12.308c11.736,0,19.661-4.188,22.08-17.206l1.679-9.066
		c2.156-11.622-1.765-16.736-12.928-16.736L177.867,96.888L177.867,96.888z"/>
</g>
<path fill="#00579D" d="M869.821,26.696c8.145,0,14.748,6.604,14.748,14.75v227.14c0,8.145-6.604,14.749-14.748,14.749H326.674
	c-8.146,0-14.75,0-14.75,0V26.701L869.821,26.696z"/>
<g>
	<path fill="#FFFFFF" d="M525.59,82.009v3.09c0,8.9-2.721,14.462-8.773,17.305v0.245c7.291,2.844,10.133,9.269,10.133,18.413v7.046
		c0,13.35-7.045,20.517-20.639,20.517H484.93V62.114h20.516C519.536,62.114,525.59,68.664,525.59,82.009z M498.524,74.473v22.862
		h5.314c5.066,0,8.158-2.227,8.158-9.146V83.37c0-6.179-2.104-8.896-6.922-8.896L498.524,74.473L498.524,74.473z M498.524,109.695
		v26.569h7.787c4.572,0,7.045-2.102,7.045-8.528v-7.539c0-8.03-2.598-10.501-8.775-10.501L498.524,109.695L498.524,109.695z"/>
	<path fill="#FFFFFF" d="M548.079,62.114v66.735c0,6.179,2.719,8.404,7.045,8.404c4.324,0,7.045-2.226,7.045-8.404V62.114h12.852
		v65.871c0,13.842-6.92,21.752-20.268,21.752s-20.27-7.91-20.27-21.752V62.114H548.079z"/>
	<path fill="#FFFFFF" d="M612.708,148.624c-0.742-2.227-1.236-3.583-1.236-10.629v-13.594c0-8.031-2.719-10.999-8.896-10.999h-4.695
		v35.223h-13.596V62.115h20.516c14.09,0,20.145,6.551,20.145,19.896v6.798c0,8.9-2.842,14.583-8.896,17.425v0.248
		c6.797,2.844,9.021,9.27,9.021,18.293v13.346c0,4.203,0.125,7.291,1.484,10.506h-13.846V148.624z M597.877,74.473v26.57h5.313
		c5.07,0,8.156-2.227,8.156-9.146V83.37c0-6.179-2.1-8.896-6.92-8.896L597.877,74.473L597.877,74.473z"/>
	<path fill="#FFFFFF" d="M652.25,61.124c13.225,0,20.021,7.909,20.021,21.753v2.718h-12.854v-3.586c0-6.178-2.471-8.525-6.799-8.525
		c-4.322,0-6.797,2.348-6.797,8.525c0,6.305,2.719,11.001,11.619,18.786c11.369,10.013,14.953,17.18,14.953,27.064
		c0,13.842-6.922,21.753-20.27,21.753s-20.268-7.911-20.268-21.753v-5.313h12.854v6.178c0,6.181,2.719,8.404,7.043,8.404
		c4.326,0,7.045-2.224,7.045-8.404c0-6.303-2.719-10.999-11.617-18.786c-11.371-10.01-14.955-17.177-14.955-27.062
		C632.229,69.033,639.028,61.124,652.25,61.124z"/>
	<path fill="#FFFFFF" d="M676.219,62.114h42.021v12.359h-14.213v74.151h-13.594V74.473h-14.215V62.114z"/>
</g>
<g>
	<path fill="#FFFFFF" d="M388.406,247.86h-11.789l-2.018-13.489h-14.338l-2.018,13.489h-10.727l11.895-74.345h17.099L388.406,247.86
		z M361.748,224.28h11.258l-5.523-37.596h-0.212L361.748,224.28z"/>
	<path fill="#FFFFFF" d="M427.591,220.138v9.878c0,11.896-5.946,18.693-17.417,18.693c-11.47,0-17.417-6.799-17.417-18.693v-38.659
		c0-11.895,5.947-18.689,17.417-18.689c11.471,0,17.417,6.796,17.417,18.689v7.223h-11.044v-7.967c0-5.309-2.337-7.327-6.054-7.327
		c-3.718,0-6.054,2.02-6.054,7.327v40.147c0,5.309,2.336,7.222,6.054,7.222c3.717,0,6.054-1.913,6.054-7.222v-10.622H427.591
		L427.591,220.138z"/>
	<path fill="#FFFFFF" d="M468.58,220.138v9.878c0,11.896-5.946,18.693-17.416,18.693s-17.417-6.799-17.417-18.693v-38.659
		c0-11.895,5.947-18.689,17.417-18.689s17.416,6.796,17.416,18.689v7.223h-11.043v-7.967c0-5.309-2.337-7.327-6.054-7.327
		c-3.719,0-6.055,2.02-6.055,7.327v40.147c0,5.309,2.336,7.222,6.055,7.222c3.717,0,6.054-1.913,6.054-7.222v-10.622H468.58
		L468.58,220.138z"/>
	<path fill="#FFFFFF" d="M487.374,204.844h16.037v10.622h-16.037v21.771h20.18v10.623h-31.86v-74.345h31.86v10.619h-20.18V204.844z"
		/>
	<path fill="#FFFFFF" d="M549.393,191.888v9.667c0,11.893-5.734,18.373-17.418,18.373h-5.521v27.932H514.77v-74.345h17.205
		C543.659,173.515,549.393,179.993,549.393,191.888z M526.454,184.134v25.172h5.521c3.719,0,5.734-1.7,5.734-7.009v-11.151
		c0-5.312-2.018-7.012-5.734-7.012H526.454z"/>
	<path fill="#FFFFFF" d="M551.407,173.515h36.107v10.619h-12.211v63.726H563.62v-63.726h-12.213V173.515L551.407,173.515z"/>
	<path fill="#FFFFFF" d="M604.293,204.844h16.035v10.622h-16.035v21.771h20.178v10.623h-31.859v-74.345h31.859v10.619h-20.178
		V204.844z"/>
	<path fill="#FFFFFF" d="M631.692,173.515h18.479c11.682,0,17.418,6.479,17.418,18.373v37.598c0,11.896-5.736,18.374-17.418,18.374
		h-18.479V173.515L631.692,173.515z M643.372,184.134v53.103h6.586c3.717,0,5.947-1.911,5.947-7.221v-38.659
		c0-5.309-2.23-7.223-5.947-7.223H643.372z"/>
	<path fill="#FFFFFF" d="M703.157,247.86h-11.682v-74.345h11.682v31.861h13.275v-31.861h11.896v74.345h-11.896v-31.862h-13.275
		V247.86z"/>
	<path fill="#FFFFFF" d="M748.5,204.844h16.039v10.622H748.5v21.771h20.18v10.623h-31.859v-74.345h31.859v10.619H748.5V204.844z"/>
	<path fill="#FFFFFF" d="M800.325,247.86c-0.637-1.913-1.061-3.083-1.061-9.136v-11.682c0-6.904-2.336-9.454-7.646-9.454h-4.037
		v30.271h-11.682v-74.345h17.631c12.105,0,17.311,5.631,17.311,17.098v5.843c0,7.646-2.443,12.53-7.646,14.976v0.211
		c5.842,2.444,7.754,7.967,7.754,15.718v11.474c0,3.608,0.104,6.266,1.273,9.027H800.325z M787.581,184.134v22.837h4.568
		c4.354,0,7.01-1.914,7.01-7.86v-7.327c0-5.313-1.809-7.648-5.949-7.648L787.581,184.134L787.581,184.134z"/>
	<path fill="#FFFFFF" d="M830.27,204.844h16.035v10.622H830.27v21.771h20.18v10.623h-31.861v-74.345h31.861v10.619h-20.18V204.844z"
		/>
</g>
</svg>
