<?xml version="1.0" encoding="utf-8"?>
<!-- Generator: Adobe Illustrator 14.0.0, SVG Export Plug-In . SVG Version: 6.00 Build 43363)  -->
<!DOCTYPE svg PUBLIC "-//W3C//DTD SVG 1.1//EN" "http://www.w3.org/Graphics/SVG/1.1/DTD/svg11.dtd">
<svg version="1.1" id="Calque_1" xmlns="http://www.w3.org/2000/svg" xmlns:xlink="http://www.w3.org/1999/xlink" x="0px" y="0px"
	 width="497.559px" height="870px" viewBox="0 0 497.559 870" enable-background="new 0 0 497.559 870" xml:space="preserve">
<path fill="#FFFFFF" d="M459.201,813.528c0,13.856-9.438,25.088-21.08,25.088H49.862c-11.638,0-21.076-11.23-21.076-25.088V56.54
	c0-13.857,9.438-25.089,21.076-25.089h388.259c11.643,0,21.08,11.231,21.08,25.089V813.528z"/>
<path fill="#00579D" d="M244.821,57.698c96.41,0,174.558,78.154,174.558,174.56c0,96.404-78.148,174.556-174.558,174.556
	c-96.405,0-174.554-78.15-174.554-174.556C70.268,135.852,148.417,57.698,244.821,57.698z"/>
<g>
	<path fill="#FFFFFF" d="M171.595,243.744l-7.718,32.815l-92.996-29.602h59.537l7.717-36.035l59.305,0.04l17.294-93.343h66.942
		c45.971,0,62.518,17.362,55.959,52.731l-1.511,8.19c-4.38,23.58-15.976,38.312-37.13,45.842l-0.118,0.663
		c22.397,7.527,28.515,24.563,24.026,48.798l-3.459,18.666c-6.557,35.374-33.065,54.372-77.422,54.372h-69.768l19.111-103.141
		h-19.769V243.744z M235.731,243.719l-13.043,70.41h25.406c14.922,0,24.008-5.566,27.17-22.598l3.7-19.981
		c3.945-21.283-3.313-27.837-23.471-27.837L235.731,243.719L235.731,243.719z M253.025,150.374l-11.227,60.593h17.338
		c16.534,0,27.698-5.898,31.104-24.237l2.368-12.772c3.033-16.373-2.489-23.578-18.215-23.578L253.025,150.374L253.025,150.374z"/>
</g>
<path fill="#00579D" d="M459.201,817.538c0,11.641-9.438,21.077-21.08,21.077H49.862c-11.638,0-21.076-9.438-21.076-21.077V447.19
	c0-11.641,0-21.078,0-21.078h430.415c0,0,0,9.438,0,21.078V817.538L459.201,817.538z"/>
<g>
	<path fill="#FFFFFF" d="M171.282,494.28v3.12c0,8.982-2.743,14.595-8.855,17.465v0.251c7.362,2.87,10.232,9.355,10.232,18.589
		v7.112c0,13.47-7.111,20.71-20.838,20.71h-21.582v-87.332h20.71C165.171,474.195,171.282,480.808,171.282,494.28z M143.961,486.671
		v23.081h5.364c5.116,0,8.239-2.245,8.239-9.233v-4.863c0-6.235-2.123-8.983-6.992-8.983L143.961,486.671L143.961,486.671z
		 M143.961,522.226v26.823h7.86c4.617,0,7.113-2.12,7.113-8.608v-7.606c0-8.111-2.621-10.607-8.857-10.607L143.961,522.226
		L143.961,522.226z"/>
	<path fill="#FFFFFF" d="M193.988,474.195v67.367c0,6.239,2.743,8.483,7.112,8.483c4.364,0,7.107-2.244,7.107-8.483v-67.367h12.976
		v66.494c0,13.973-6.985,21.957-20.459,21.957c-13.476,0-20.459-7.984-20.459-21.957v-66.494H193.988L193.988,474.195z"/>
	<path fill="#FFFFFF" d="M259.234,561.527c-0.748-2.248-1.25-3.62-1.25-10.731v-13.723c0-8.109-2.742-11.103-8.979-11.103h-4.744
		v35.557h-13.72v-87.332h20.708c14.225,0,20.335,6.612,20.335,20.085v6.863c0,8.98-2.87,14.722-8.983,17.59v0.25
		c6.862,2.867,9.107,9.357,9.107,18.464v13.474c0,4.241,0.125,7.359,1.495,10.606H259.234z M244.263,486.671v26.822h5.366
		c5.114,0,8.236-2.245,8.236-9.231v-8.606c0-6.235-2.123-8.983-6.989-8.983L244.263,486.671L244.263,486.671z"/>
	<path fill="#FFFFFF" d="M299.156,473.198c13.35,0,20.21,7.984,20.21,21.957v2.743h-12.976v-3.618c0-6.236-2.496-8.605-6.863-8.605
		c-4.364,0-6.86,2.369-6.86,8.605c0,6.363,2.743,11.105,11.729,18.964c11.477,10.105,15.095,17.341,15.095,27.323
		c0,13.971-6.985,21.955-20.459,21.955c-13.476,0-20.462-7.984-20.462-21.955v-5.368h12.973v6.24c0,6.235,2.749,8.483,7.113,8.483
		c4.367,0,7.111-2.248,7.111-8.483c0-6.362-2.744-11.104-11.729-18.964c-11.477-10.104-15.094-17.341-15.094-27.32
		C278.945,481.183,285.809,473.198,299.156,473.198z"/>
	<path fill="#FFFFFF" d="M323.357,474.195h42.418v12.477h-14.344v74.855h-13.723v-74.855h-14.352V474.195L323.357,474.195z"/>
</g>
<g>
	<path fill="#FFFFFF" d="M104.853,677.75h-13.85l-2.369-15.846H71.791l-2.37,15.846H56.817l13.975-87.33h20.085L104.853,677.75z
		 M73.538,650.054h13.226l-6.49-44.163h-0.25L73.538,650.054z"/>
	<path fill="#FFFFFF" d="M150.886,645.189v11.601c0,13.974-6.985,21.959-20.461,21.959c-13.473,0-20.458-7.985-20.458-21.959
		v-45.411c0-13.972,6.985-21.955,20.458-21.955c13.476,0,20.461,7.983,20.461,21.955v8.481H137.91v-9.354
		c0-6.236-2.744-8.606-7.111-8.606c-4.366,0-7.109,2.37-7.109,8.606v47.161c0,6.235,2.743,8.48,7.109,8.48
		c4.367,0,7.111-2.245,7.111-8.48v-12.478H150.886L150.886,645.189z"/>
	<path fill="#FFFFFF" d="M199.041,645.189v11.601c0,13.974-6.987,21.959-20.458,21.959c-13.475,0-20.46-7.985-20.46-21.959v-45.411
		c0-13.972,6.985-21.955,20.46-21.955c13.471,0,20.458,7.983,20.458,21.955v8.481h-12.976v-9.354c0-6.236-2.743-8.606-7.112-8.606
		c-4.362,0-7.111,2.37-7.111,8.606v47.161c0,6.235,2.749,8.48,7.111,8.48c4.369,0,7.112-2.245,7.112-8.48v-12.478H199.041
		L199.041,645.189z"/>
	<path fill="#FFFFFF" d="M221.122,627.223h18.84v12.477h-18.84v25.574h23.701v12.477h-37.425v-87.329h37.425v12.474h-23.701V627.223
		z"/>
	<path fill="#FFFFFF" d="M293.98,612.004v11.35c0,13.976-6.737,21.585-20.461,21.585h-6.488v32.813h-13.723v-87.33h20.211
		C287.243,590.42,293.98,598.029,293.98,612.004z M267.031,602.894v29.568h6.488c4.369,0,6.738-1.996,6.738-8.232v-13.1
		c0-6.238-2.369-8.236-6.738-8.236H267.031z"/>
	<path fill="#FFFFFF" d="M296.352,590.42h42.414v12.474h-14.348v74.856h-13.722v-74.856H296.35V590.42H296.352z"/>
	<path fill="#FFFFFF" d="M358.479,627.223h18.838v12.477h-18.838v25.574h23.703v12.477h-37.429v-87.329h37.429v12.474h-23.703
		V627.223z"/>
	<path fill="#FFFFFF" d="M390.665,590.42h21.705c13.725,0,20.463,7.608,20.463,21.584v44.164c0,13.975-6.738,21.582-20.463,21.582
		h-21.705V590.42z M404.385,602.894v62.38h7.737c4.364,0,6.987-2.244,6.987-8.482v-45.412c0-6.236-2.623-8.484-6.987-8.484
		L404.385,602.894L404.385,602.894z"/>
	<path fill="#FFFFFF" d="M167.104,790.029h-13.725V702.7h13.725v37.429H182.7V702.7h13.973v87.328H182.7v-37.423h-15.597
		L167.104,790.029L167.104,790.029z"/>
	<path fill="#FFFFFF" d="M220.373,739.505h18.84v12.477h-18.84v25.576h23.703v12.472h-37.427v-87.328h37.427v12.478h-23.703V739.505
		z"/>
	<path fill="#FFFFFF" d="M281.254,790.029c-0.751-2.243-1.251-3.617-1.251-10.728V765.58c0-8.11-2.739-11.104-8.981-11.104h-4.74
		v35.553h-13.723V702.7h20.709c14.223,0,20.334,6.615,20.334,20.088v6.863c0,8.979-2.867,14.719-8.981,17.59v0.25
		c6.86,2.869,9.108,9.355,9.108,18.461v13.473c0,4.246,0.125,7.361,1.494,10.604H281.254z M266.281,715.178V742h5.363
		c5.117,0,8.238-2.242,8.238-9.229v-8.611c0-6.235-2.123-8.982-6.988-8.982H266.281z"/>
	<path fill="#FFFFFF" d="M316.436,739.505h18.842v12.477h-18.842v25.576h23.703v12.472h-37.426v-87.328h37.426v12.478h-23.703
		V739.505z"/>
</g>
</svg>
