<?xml version="1.0" encoding="utf-8"?>
<!-- Generator: Adobe Illustrator 14.0.0, SVG Export Plug-In . SVG Version: 6.00 Build 43363)  -->
<!DOCTYPE svg PUBLIC "-//W3C//DTD SVG 1.1//EN" "http://www.w3.org/Graphics/SVG/1.1/DTD/svg11.dtd">
<svg version="1.1" id="Calque_1" xmlns="http://www.w3.org/2000/svg" xmlns:xlink="http://www.w3.org/1999/xlink" x="0px" y="0px"
	 width="470.977px" height="314.984px" viewBox="0 0 470.977 314.984" enable-background="new 0 0 470.977 314.984"
	 xml:space="preserve">
<g>
	<path fill="#00579D" d="M116.799,100.848c-9.387,0-16.994,7.607-16.994,16.994v79.3c0,9.385,7.609,16.994,16.994,16.994h96.977
		V100.848H116.799z"/>
	<path fill="#00579D" d="M382.808,100.848H217.28v113.288h165.526c9.387,0,16.996-7.61,16.996-16.994h0.002v-79.3
		C399.805,108.455,392.192,100.848,382.808,100.848z"/>
</g>
<g>
	<path fill="#FFFFFF" d="M236.429,121.162c4.554,0,6.895,2.724,6.895,7.49v0.936h-4.427v-1.234c0-2.128-0.851-2.937-2.34-2.937
		c-1.49,0-2.341,0.809-2.341,2.937c0,2.17,0.937,3.788,4,6.469c3.915,3.447,5.149,5.915,5.149,9.32c0,4.766-2.383,7.49-6.979,7.49
		c-4.596,0-6.979-2.724-6.979-7.49v-1.83h4.426v2.128c0,2.128,0.936,2.894,2.426,2.894c1.489,0,2.426-0.766,2.426-2.894
		c0-2.17-0.937-3.788-4.001-6.469c-3.915-3.447-5.149-5.916-5.149-9.32C229.534,123.885,231.875,121.162,236.429,121.162z"/>
	<path fill="#FFFFFF" d="M250.512,121.502v22.98c0,2.128,0.937,2.894,2.426,2.894c1.49,0,2.426-0.766,2.426-2.894v-22.98h4.426
		v22.683c0,4.766-2.383,7.49-6.979,7.49c-4.597,0-6.979-2.724-6.979-7.49v-22.683H250.512z"/>
	<path fill="#FFFFFF" d="M276.853,128.865v3.873c0,4.766-2.299,7.362-6.979,7.362h-2.213v11.192h-4.682v-29.79h6.895
		C274.554,121.502,276.853,124.098,276.853,128.865z M267.66,125.758v10.086h2.213c1.489,0,2.298-0.681,2.298-2.809v-4.468
		c0-2.128-0.809-2.809-2.298-2.809H267.66z"/>
	<path fill="#FFFFFF" d="M292.895,128.865v3.873c0,4.766-2.299,7.362-6.979,7.362h-2.213v11.192h-4.682v-29.79h6.895
		C290.596,121.502,292.895,124.098,292.895,128.865z M283.702,125.758v10.086h2.213c1.489,0,2.298-0.681,2.298-2.809v-4.468
		c0-2.128-0.809-2.809-2.298-2.809H283.702z"/>
	<path fill="#FFFFFF" d="M294.679,128.652c0-4.767,2.511-7.49,7.106-7.49c4.597,0,7.107,2.724,7.107,7.49v15.491
		c0,4.766-2.511,7.49-7.107,7.49c-4.596,0-7.106-2.724-7.106-7.49V128.652z M299.36,144.44c0,2.128,0.936,2.937,2.425,2.937
		c1.49,0,2.426-0.809,2.426-2.937v-16.086c0-2.128-0.936-2.937-2.426-2.937c-1.489,0-2.425,0.809-2.425,2.937V144.44z"/>
	<path fill="#FFFFFF" d="M321.699,151.292c-0.255-0.766-0.426-1.234-0.426-3.66v-4.682c0-2.766-0.936-3.788-3.063-3.788h-1.617
		v12.129h-4.682v-29.79h7.064c4.852,0,6.937,2.255,6.937,6.852v2.34c0,3.064-0.979,5.022-3.063,6v0.085
		c2.34,0.979,3.106,3.191,3.106,6.298v4.596c0,1.447,0.042,2.511,0.511,3.617H321.699z M316.593,125.758v9.15h1.83
		c1.744,0,2.809-0.766,2.809-3.149v-2.936c0-2.128-0.724-3.064-2.384-3.064H316.593z"/>
	<path fill="#FFFFFF" d="M327.655,121.502h14.469v4.255h-4.894v25.534h-4.682v-25.534h-4.894V121.502z"/>
	<path fill="#FFFFFF" d="M344.164,121.502h4.682v29.79h-4.682V121.502z"/>
	<path fill="#FFFFFF" d="M356.504,129.716h-0.085v21.576h-4.213v-29.79h5.872l4.724,17.831h0.086v-17.831h4.17v29.79h-4.809
		L356.504,129.716z"/>
	<path fill="#FFFFFF" d="M377.439,134.695h6.554v9.448c0,4.766-2.384,7.49-6.979,7.49c-4.597,0-6.979-2.724-6.979-7.49v-15.491
		c0-4.767,2.383-7.49,6.979-7.49c4.596,0,6.979,2.724,6.979,7.49v2.894h-4.427v-3.192c0-2.128-0.936-2.937-2.426-2.937
		c-1.489,0-2.425,0.809-2.425,2.937v16.086c0,2.128,0.936,2.894,2.425,2.894c1.49,0,2.426-0.766,2.426-2.894v-5.49h-2.127V134.695z"
		/>
	<path fill="#FFFFFF" d="M230.46,159.15h8.623c5.452,0,8.128,3.023,8.128,8.574v17.544c0,5.551-2.676,8.574-8.128,8.574h-8.623
		V159.15z M235.911,164.106v24.78h3.073c1.734,0,2.775-0.892,2.775-3.37v-18.04c0-2.478-1.041-3.37-2.775-3.37H235.911z"/>
	<path fill="#FFFFFF" d="M255.04,182.345l-6.889-23.194h5.699l4.113,15.81h0.1l4.113-15.81h5.204l-6.889,23.194v11.498h-5.452
		V182.345z"/>
	<path fill="#FFFFFF" d="M281.059,183.782h0.099l3.668-24.632h7.583v34.692h-5.154v-24.879h-0.1l-3.667,24.879h-5.154l-3.965-24.532
		h-0.1v24.532h-4.758V159.15h7.583L281.059,183.782z"/>
	<path fill="#FFFFFF" d="M314.016,193.843h-5.501l-0.941-6.294h-6.691l-0.941,6.294h-5.006l5.551-34.692h7.979L314.016,193.843z
		 M301.576,182.84h5.253l-2.577-17.544h-0.099L301.576,182.84z"/>
	<path fill="#FFFFFF" d="M334.73,159.15l-5.699,16.851l6.096,17.842h-5.749l-4.41-13.729h-0.1l-4.461,13.729h-5.104l6.097-17.842
		l-5.7-16.851h5.65l4.063,12.787h0.1l4.163-12.787H334.73z"/>
	<path fill="#FFFFFF" d="M337.853,159.15h5.451v34.692h-5.451V159.15z"/>
	<path fill="#FFFFFF" d="M346.821,167.477c0-5.551,2.924-8.723,8.277-8.723c5.352,0,8.276,3.172,8.276,8.723v18.04
		c0,5.551-2.925,8.723-8.276,8.723c-5.354,0-8.277-3.172-8.277-8.723V167.477z M352.273,185.863c0,2.479,1.09,3.42,2.825,3.42
		c1.734,0,2.824-0.941,2.824-3.42V167.13c0-2.479-1.09-3.42-2.824-3.42c-1.735,0-2.825,0.941-2.825,3.42V185.863z"/>
	<path fill="#FFFFFF" d="M371.849,168.716h-0.1v25.127h-4.906V159.15h6.84l5.501,20.766h0.099V159.15h4.857v34.692h-5.601
		L371.849,168.716z"/>
</g>
<circle fill="#FFFFFF" cx="156.448" cy="157.49" r="45.99"/>
<g>
	<path fill="#00579D" d="M137.155,160.517l-2.034,8.646l-24.502-7.798h15.687l2.035-9.496l15.625,0.009l4.556-24.593h17.637
		c12.11,0,16.473,4.575,14.743,13.894l-0.397,2.157c-1.153,6.214-4.208,10.096-9.781,12.08l-0.032,0.174
		c5.9,1.983,7.513,6.471,6.331,12.858l-0.911,4.917c-1.729,9.32-8.713,14.324-20.399,14.324h-18.382l5.036-27.177h-5.209V160.517z
		 M154.053,160.508l-3.436,18.556h6.692c3.931,0,6.327-1.468,7.158-5.955l0.975-5.265c1.04-5.606-0.871-7.334-6.183-7.334h-5.207
		V160.508z M158.61,135.917l-2.958,15.963h4.569c4.357,0,7.298-1.555,8.194-6.384l0.623-3.366c0.802-4.314-0.654-6.212-4.797-6.212
		H158.61L158.61,135.917z"/>
</g>
</svg>
