<?xml version="1.0" encoding="utf-8"?>
<!-- Generator: Adobe Illustrator 14.0.0, SVG Export Plug-In . SVG Version: 6.00 Build 43363)  -->
<!DOCTYPE svg PUBLIC "-//W3C//DTD SVG 1.1//EN" "http://www.w3.org/Graphics/SVG/1.1/DTD/svg11.dtd">
<svg version="1.1" id="Calque_1" xmlns="http://www.w3.org/2000/svg" xmlns:xlink="http://www.w3.org/1999/xlink" x="0px" y="0px"
	 width="406.452px" height="219.355px" viewBox="0 0 406.452 219.355" enable-background="new 0 0 406.452 219.355"
	 xml:space="preserve">
<g>
	<path fill="#262626" d="M67.622,57.519c-9.387,0-16.994,7.607-16.994,16.995v79.3c0,9.385,7.609,16.994,16.994,16.994h96.977
		V57.519H67.622z"/>
	<path fill="#262626" d="M333.63,57.519H168.103v113.289h165.526c9.387,0,16.996-7.611,16.996-16.994h0.002v-79.3
		C350.627,65.126,343.015,57.519,333.63,57.519z"/>
</g>
<g>
	<path fill="#FFFFFF" d="M187.251,77.834c4.554,0,6.895,2.724,6.895,7.489v0.937h-4.426v-1.234c0-2.128-0.851-2.937-2.34-2.937
		c-1.49,0-2.341,0.809-2.341,2.937c0,2.171,0.937,3.788,4,6.469c3.915,3.447,5.149,5.916,5.149,9.32c0,4.767-2.383,7.49-6.979,7.49
		s-6.979-2.724-6.979-7.49v-1.83h4.426v2.128c0,2.128,0.936,2.894,2.426,2.894c1.489,0,2.426-0.766,2.426-2.894
		c0-2.171-0.937-3.788-4-6.469c-3.915-3.447-5.149-5.915-5.149-9.32C180.357,80.558,182.698,77.834,187.251,77.834z"/>
	<path fill="#FFFFFF" d="M201.334,78.174v22.981c0,2.127,0.937,2.894,2.426,2.894c1.49,0,2.426-0.767,2.426-2.894V78.174h4.426
		v22.683c0,4.767-2.383,7.49-6.979,7.49c-4.597,0-6.98-2.724-6.98-7.49V78.174H201.334z"/>
	<path fill="#FFFFFF" d="M227.675,85.537v3.873c0,4.767-2.299,7.362-6.979,7.362h-2.213v11.192h-4.682v-29.79h6.895
		C225.376,78.174,227.675,80.771,227.675,85.537z M218.483,82.43v10.086h2.213c1.489,0,2.298-0.681,2.298-2.809v-4.469
		c0-2.128-0.809-2.809-2.298-2.809H218.483z"/>
	<path fill="#FFFFFF" d="M243.717,85.537v3.873c0,4.767-2.299,7.362-6.979,7.362h-2.213v11.192h-4.682v-29.79h6.895
		C241.418,78.174,243.717,80.771,243.717,85.537z M234.525,82.43v10.086h2.213c1.489,0,2.298-0.681,2.298-2.809v-4.469
		c0-2.128-0.809-2.809-2.298-2.809H234.525z"/>
	<path fill="#FFFFFF" d="M245.501,85.324c0-4.766,2.511-7.489,7.106-7.489c4.597,0,7.107,2.724,7.107,7.489v15.491
		c0,4.767-2.511,7.49-7.107,7.49c-4.596,0-7.106-2.724-7.106-7.49V85.324z M250.183,101.113c0,2.128,0.936,2.937,2.425,2.937
		c1.49,0,2.426-0.809,2.426-2.937V85.026c0-2.128-0.936-2.937-2.426-2.937c-1.489,0-2.425,0.809-2.425,2.937V101.113z"/>
	<path fill="#FFFFFF" d="M272.522,107.964c-0.255-0.766-0.426-1.234-0.426-3.66v-4.681c0-2.767-0.936-3.788-3.063-3.788h-1.617
		v12.129h-4.682v-29.79h7.064c4.852,0,6.937,2.256,6.937,6.852v2.341c0,3.064-0.979,5.021-3.063,6.001v0.085
		c2.34,0.979,3.106,3.191,3.106,6.298v4.597c0,1.447,0.042,2.511,0.511,3.617H272.522z M267.416,82.43v9.149h1.83
		c1.744,0,2.809-0.766,2.809-3.148v-2.937c0-2.128-0.724-3.064-2.384-3.064H267.416z"/>
	<path fill="#FFFFFF" d="M278.478,78.174h14.469v4.256h-4.894v25.534h-4.682V82.43h-4.894V78.174z"/>
	<path fill="#FFFFFF" d="M294.987,78.174h4.682v29.79h-4.682V78.174z"/>
	<path fill="#FFFFFF" d="M307.327,86.388h-0.085v21.576h-4.213v-29.79h5.872l4.724,17.832h0.086V78.174h4.17v29.79h-4.809
		L307.327,86.388z"/>
	<path fill="#FFFFFF" d="M328.262,91.368h6.554v9.447c0,4.767-2.384,7.49-6.979,7.49c-4.597,0-6.979-2.724-6.979-7.49V85.324
		c0-4.766,2.383-7.489,6.979-7.489c4.596,0,6.979,2.724,6.979,7.489v2.895h-4.427v-3.192c0-2.128-0.936-2.937-2.426-2.937
		c-1.489,0-2.425,0.809-2.425,2.937v16.087c0,2.128,0.936,2.894,2.425,2.894c1.49,0,2.426-0.766,2.426-2.894v-5.49h-2.127V91.368z"
		/>
	<path fill="#FFFFFF" d="M181.282,115.823h8.624c5.452,0,8.128,3.023,8.128,8.574v17.544c0,5.551-2.676,8.574-8.128,8.574h-8.624
		V115.823z M186.734,120.779v24.78h3.073c1.735,0,2.775-0.892,2.775-3.37v-18.04c0-2.478-1.041-3.37-2.775-3.37H186.734z"/>
	<path fill="#FFFFFF" d="M205.863,139.017l-6.889-23.194h5.699l4.113,15.81h0.1l4.113-15.81h5.204l-6.889,23.194v11.498h-5.452
		V139.017z"/>
	<path fill="#FFFFFF" d="M231.881,140.455h0.099l3.668-24.632h7.583v34.692h-5.154v-24.879h-0.1l-3.667,24.879h-5.154l-3.965-24.532
		h-0.1v24.532h-4.758v-34.692h7.583L231.881,140.455z"/>
	<path fill="#FFFFFF" d="M264.838,150.515h-5.501l-0.941-6.294h-6.691l-0.941,6.294h-5.006l5.551-34.692h7.979L264.838,150.515z
		 M252.399,139.513h5.253l-2.577-17.545h-0.099L252.399,139.513z"/>
	<path fill="#FFFFFF" d="M285.553,115.823l-5.699,16.851l6.096,17.842h-5.749l-4.41-13.729h-0.1l-4.461,13.729h-5.104l6.097-17.842
		l-5.7-16.851h5.65l4.063,12.786h0.1l4.163-12.786H285.553z"/>
	<path fill="#FFFFFF" d="M288.675,115.823h5.451v34.692h-5.451V115.823z"/>
	<path fill="#FFFFFF" d="M297.644,124.149c0-5.551,2.924-8.723,8.277-8.723c5.352,0,8.276,3.172,8.276,8.723v18.04
		c0,5.551-2.925,8.723-8.276,8.723c-5.354,0-8.277-3.172-8.277-8.723V124.149z M303.096,142.536c0,2.479,1.09,3.42,2.825,3.42
		c1.734,0,2.824-0.941,2.824-3.42v-18.733c0-2.479-1.09-3.42-2.824-3.42c-1.735,0-2.825,0.941-2.825,3.42V142.536z"/>
	<path fill="#FFFFFF" d="M322.671,125.388h-0.1v25.127h-4.906v-34.692h6.84l5.501,20.766h0.099v-20.766h4.857v34.692h-5.601
		L322.671,125.388z"/>
</g>
<g>
	<path fill="#FFFFFF" d="M107.271,68.171c-25.399,0-45.99,20.59-45.99,45.99c0,1.306,0.058,2.598,0.164,3.876h15.683l2.035-9.496
		l15.625,0.009l4.556-24.593h17.637c12.11,0,16.473,4.575,14.743,13.895l-0.397,2.156c-1.153,6.214-4.208,10.097-9.781,12.079
		l-0.032,0.175c5.9,1.983,7.513,6.472,6.331,12.857l-0.911,4.917c-1.729,9.32-8.713,14.324-20.399,14.324H88.152l5.036-27.177
		h-5.209v0.005l-2.034,8.646l-24.499-7.796c1.969,23.584,21.732,42.113,45.826,42.113c25.4,0,45.99-20.592,45.99-45.99
		C153.261,88.761,132.67,68.171,107.271,68.171z"/>
	<path fill="#FFFFFF" d="M119.237,102.167l0.623-3.365c0.802-4.314-0.654-6.213-4.797-6.213h-5.63l-2.958,15.963h4.569
		C115.4,108.552,118.342,106.998,119.237,102.167z"/>
	<path fill="#FFFFFF" d="M101.44,135.736h6.692c3.931,0,6.327-1.468,7.158-5.954l0.975-5.266c1.04-5.606-0.871-7.334-6.183-7.334
		h-5.207v-0.002L101.44,135.736z"/>
</g>
</svg>
