<?xml version="1.0" encoding="utf-8"?>
<!-- Generator: Adobe Illustrator 14.0.0, SVG Export Plug-In . SVG Version: 6.00 Build 43363)  -->
<!DOCTYPE svg PUBLIC "-//W3C//DTD SVG 1.1//EN" "http://www.w3.org/Graphics/SVG/1.1/DTD/svg11.dtd">
<svg version="1.1" id="Calque_1" xmlns="http://www.w3.org/2000/svg" xmlns:xlink="http://www.w3.org/1999/xlink" x="0px" y="0px"
	 width="404px" height="361px" viewBox="-41.748 -28.464 404 361" enable-background="new -41.748 -28.464 404 361"
	 xml:space="preserve">
<g>
	<path fill="#262626" d="M115.23,165.643l-10.482,44.573l-125.861-40.21h80.409l10.491-48.941l80.541,0.059L173.819-5.656h90.92
		c62.439,0,84.914,23.583,76.008,71.621l-2.056,11.125c-5.946,32.025-21.699,52.038-50.427,62.265l-0.168,0.895
		c30.422,10.23,38.735,33.364,32.636,66.279l-4.697,25.352c-8.904,48.04-44.912,73.846-105.155,73.846h-94.758l25.959-140.085
		H115.23V165.643z M202.333,165.609l-17.717,95.629h34.509c20.268,0,32.618-7.56,36.898-30.692l5.031-27.135
		c5.354-28.909-4.501-37.803-31.885-37.803L202.333,165.609L202.333,165.609z M225.827,38.83l-15.249,82.294h23.552
		c22.451,0,37.624-8.01,42.243-32.92l3.217-17.349c4.119-22.237-3.373-32.025-24.737-32.025H225.827z"/>
</g>
</svg>
